PathFileType  4	(X/Y/Z) C:\Users\antoi\Documents\MyRepositories\mobilecap\ResultsAnalysis
DataRate	CameraRate	NumFrames	NumMarkers	Units	OrigDataRate	OrigDataStartFrame	OrigNumFrames
100.0	100.0	6	51	mm	100.0	36	140
Frame#	Time	r_knee			r_shank_antsup			r_ankle			r_calc			r_5meta			r_toe			L_knee			L_shank_antsup			L_ankle			L_calc			L_5meta			L_toe			r_sh2			r_sh3			r_sh4			L_sh2			L_sh3			r_thigh1			r_thigh2			r_thigh3			r_thigh4			r_thigh5			L_thigh1			L_thigh2			L_thigh3			L_thigh4			r.ASIS			r.PSIS			L.ASIS			L.PSIS			C7			R_Shoulder			L_Shoulder			R_Sternum			L_Sternum			R_humerus			R_elbow_med			R_elbow_lat			R_forearm			R_wrist_radius			R_wrist_ulna			L_humerus			L_elbow_med			L_elbow_lat			L_forearm			L_wrist_radius			L_wrist_ulna			R_HJC			L_HJC			R_HJC_reg			L_HJC_reg			
		X1	Y1	Z1	X2	Y2	Z2	X3	Y3	Z3	X4	Y4	Z4	X5	Y5	Z5	X6	Y6	Z6	X7	Y7	Z7	X8	Y8	Z8	X9	Y9	Z9	X10	Y10	Z10	X11	Y11	Z11	X12	Y12	Z12	X13	Y13	Z13	X14	Y14	Z14	X15	Y15	Z15	X16	Y16	Z16	X17	Y17	Z17	X18	Y18	Z18	X19	Y19	Z19	X20	Y20	Z20	X21	Y21	Z21	X22	Y22	Z22	X23	Y23	Z23	X24	Y24	Z24	X25	Y25	Z25	X26	Y26	Z26	X27	Y27	Z27	X28	Y28	Z28	X29	Y29	Z29	X30	Y30	Z30	X31	Y31	Z31	X32	Y32	Z32	X33	Y33	Z33	X34	Y34	Z34	X35	Y35	Z35	X36	Y36	Z36	X37	Y37	Z37	X38	Y38	Z38	X39	Y39	Z39	X40	Y40	Z40	X41	Y41	Z41	X42	Y42	Z42	X43	Y43	Z43	X44	Y44	Z44	X45	Y45	Z45	X46	Y46	Z46	X47	Y47	Z47	X48	Y48	Z48	X49	Y49	Z49	X50	Y50	Z50	X51	Y51	Z51	

36	0.35000000	186.77743	542.48675	-49.57151	216.38949	448.10358	-69.00185	143.28287	118.88748	-128.33194	61.95686	75.87818	-176.29637	260.06135	46.26435	-92.93078	316.73932	74.29773	-159.73179	385.86471	589.08179	-361.71785	369.74909	501.54674	-383.00924	235.74594	198.67769	-326.75716	151.49719	162.69623	-267.05968	323.05349	94.77418	-370.64278	391.07630	105.84159	-313.27083	197.71712	337.78578	-55.35711	153.92401	462.85154	-29.00936	117.52444	352.48247	-32.76437	285.83965	533.99744	-368.42949	255.89573	415.57822	-361.71500	273.39260	863.80149	-7.96181	273.62440	753.81513	-20.36829	215.20085	727.98859	4.49597	161.84623	859.26337	12.43024	163.42935	746.74545	-8.16156	335.83107	889.26617	-353.64503	407.92888	768.39342	-348.54076	244.47447	833.11489	-383.00027	312.64827	714.46128	-383.02121	272.54333	1090.17192	-40.61748	89.81697	1089.13860	-103.10447	267.03699	1080.58372	-291.07692	82.38645	1085.70267	-213.96879	201.93168	1618.04887	-287.28355	292.51385	1587.07965	-119.91240	207.43910	1497.42271	-436.54862	307.49727	1516.02713	-251.67413	294.05277	1497.45842	-302.10625	296.53851	1446.03289	-20.72892	183.58354	1256.15957	7.00226	220.71340	1289.32567	77.92810	309.06165	1139.11067	107.19411	364.53116	1059.52531	99.45380	329.92240	1059.39173	130.47396	164.27905	1361.35671	-483.94468	105.30290	1146.11316	-374.53128	102.82202	1145.05095	-457.52301	139.09149	1079.71199	-480.14284	190.04811	906.77490	-474.98040	149.97539	898.73126	-472.73045	201.35600	968.18024	-54.23923	189.62401	966.56134	-260.85726	221.46946	1002.47525	-69.76325	210.41369	997.36158	-234.77586	
37	0.36000000	191.86424	542.33801	-49.10085	220.43703	447.53590	-68.64688	143.46534	119.11609	-128.50498	62.06839	75.93452	-176.40664	259.99245	46.23629	-92.88674	316.83378	74.23520	-159.65095	400.08508	589.13312	-361.01787	387.93458	500.61782	-383.11078	274.18217	189.25654	-328.54461	192.38504	147.92910	-268.81707	367.21579	90.83058	-373.51416	435.07483	105.78310	-316.45347	200.26853	337.48633	-55.39013	158.01214	462.98703	-28.76323	120.30255	353.09670	-32.71347	302.27281	527.30911	-367.95361	280.36917	407.16347	-362.00787	282.07222	862.73088	-6.35134	280.97750	752.72788	-19.20939	222.09118	727.46716	5.05719	169.73684	859.27163	13.56708	170.55270	746.76023	-7.58085	350.13201	890.15477	-351.62845	422.46561	769.32701	-346.76673	259.24579	833.79486	-382.18807	327.51603	715.19211	-381.96380	283.27355	1089.55397	-38.83170	101.01809	1088.74751	-102.94336	279.74973	1079.84078	-289.47145	94.42218	1085.05475	-213.79960	215.09580	1616.04029	-291.00430	306.94711	1586.94366	-123.94537	219.26570	1493.35800	-438.79554	320.36479	1514.10757	-254.87348	306.58549	1494.93045	-304.95601	311.51315	1447.23595	-23.05500	198.76943	1257.68155	8.56943	236.72136	1292.04193	78.66550	327.84181	1143.45185	107.55452	384.80427	1065.17735	99.51999	350.55958	1064.12892	130.70792	174.46048	1356.96813	-484.06224	112.80701	1144.65013	-371.06891	109.56786	1142.38224	-453.87277	142.69677	1075.56365	-476.03812	185.31095	900.45490	-468.80771	145.24776	894.47383	-466.43827	212.04863	967.64749	-53.02928	201.98786	965.87255	-259.73250	232.27378	1002.09464	-68.18074	222.45069	996.59179	-233.35790	
38	0.37000000	196.89211	542.11521	-48.53306	224.47664	446.90666	-68.16222	143.60991	119.32544	-128.67873	62.15896	75.99938	-176.51887	259.90508	46.19476	-92.82578	316.89884	74.19010	-159.54629	413.40040	588.33975	-360.52265	405.58214	499.14813	-383.38886	313.08128	180.52790	-330.10225	234.02368	134.37858	-270.22743	411.31153	87.56600	-375.97600	478.80491	106.39312	-319.29899	202.71556	337.14769	-55.35285	162.04212	463.06729	-28.46886	122.97732	353.68900	-32.66198	318.52222	519.79718	-367.77427	304.93361	398.48227	-362.42217	290.86555	861.58881	-4.76120	288.41341	751.58019	-18.08935	229.15781	726.87990	5.70776	177.90525	859.24392	14.66903	177.80536	746.72251	-6.92917	363.96924	890.15611	-349.64117	436.09417	769.12319	-345.04354	273.38953	833.90188	-380.94040	341.27751	715.08226	-380.45406	294.12037	1088.83938	-37.12091	112.33468	1088.20575	-102.87556	292.52400	1078.80073	-287.97436	106.53406	1084.13888	-213.70594	228.33271	1613.70328	-294.86724	321.44931	1586.48519	-128.13073	231.17198	1488.95056	-441.12652	333.24689	1511.86340	-258.17542	319.16630	1492.06905	-307.89865	326.46877	1448.20439	-25.45163	213.86913	1259.08748	10.11170	252.64785	1294.66292	79.32614	346.38913	1147.67103	107.81558	404.74403	1070.65523	99.44567	370.83721	1068.78819	130.85789	184.69989	1352.29011	-484.23034	120.48383	1142.95052	-367.75305	116.45157	1139.54775	-450.36398	146.48405	1071.42479	-471.98687	180.73719	894.63737	-462.62057	140.94023	890.88658	-460.34131	222.85822	967.00421	-51.82096	214.43736	964.90025	-258.59367	243.19081	1001.61043	-66.57400	234.54068	995.54108	-231.93522	
39	0.38000000	201.94992	541.79910	-47.88620	228.59094	446.18630	-67.58888	143.73099	119.51411	-128.85646	62.23112	76.07799	-176.62961	259.81227	46.13563	-92.74546	316.92829	74.13640	-159.42775	425.92271	586.73496	-360.22211	422.77480	497.24559	-383.77506	352.22528	172.71195	-331.40642	276.14107	122.24159	-271.27683	455.23820	85.21611	-377.96137	522.10396	107.93073	-321.72858	205.19618	336.73413	-55.22791	166.14386	463.07087	-28.12138	125.67895	354.23056	-32.57555	334.68539	511.70053	-367.91108	329.54195	389.80025	-363.00461	299.79216	860.34276	-3.19989	295.98502	750.34649	-16.96653	236.42383	726.21176	6.46087	186.44217	859.14471	15.68123	185.23375	746.61586	-6.21361	377.22703	889.20397	-347.72470	448.74815	767.75518	-343.38816	286.73365	833.35112	-379.28389	353.84996	714.08813	-378.59444	305.11765	1087.98671	-35.54926	123.81281	1087.49927	-102.88184	305.37353	1077.46918	-286.61875	118.74590	1082.94949	-213.67113	241.63605	1611.03397	-298.85293	336.00358	1585.69037	-132.45569	243.18409	1484.21267	-443.53497	346.14895	1509.27333	-261.56334	331.80911	1488.86238	-310.92132	341.41444	1448.91422	-27.92312	228.88986	1260.36479	11.60464	268.49775	1297.16597	79.89666	364.69704	1151.73023	107.97288	424.33946	1075.90345	99.22733	390.75068	1073.33088	130.92583	194.99789	1347.35936	-484.45062	128.29542	1141.05708	-364.59180	123.43399	1136.59011	-447.00131	150.45244	1067.32330	-468.00103	176.46904	889.34924	-456.41985	137.12422	887.94015	-454.43534	233.83178	966.21769	-50.65333	226.97284	963.64664	-257.47914	254.25304	1001.01511	-65.00033	246.68526	994.21489	-230.54014	
40	0.39000000	207.14989	541.37433	-47.18781	232.87843	445.34175	-66.97179	143.84882	119.68221	-129.03569	62.28617	76.16912	-176.73612	259.72915	46.05622	-92.64313	316.92985	74.05470	-159.30113	437.77878	584.39335	-360.07213	439.56387	495.03283	-384.19074	391.34800	165.97701	-332.47179	318.41809	111.61051	-272.02949	498.86600	84.02202	-379.41877	564.76160	110.67295	-323.65810	207.85709	336.21169	-55.01190	170.46023	462.97265	-27.71563	128.55643	354.69188	-32.41729	350.80825	503.29941	-368.33060	354.08336	381.37124	-363.75107	308.87318	858.96330	-1.67330	303.75186	749.00296	-15.80782	243.90974	725.44914	7.30556	195.36000	858.94104	16.59713	192.88477	746.42430	-5.45043	389.80644	887.28304	-345.90654	460.38683	765.25111	-341.82843	299.13474	832.08539	-377.28317	365.20007	712.21533	-376.55062	316.30318	1086.95613	-34.17044	135.48590	1086.60905	-102.94281	318.29787	1075.84907	-285.43506	131.08008	1081.48335	-213.67833	254.99268	1608.03621	-302.93475	350.58871	1584.54450	-136.89990	255.33518	1479.15691	-446.01253	359.08121	1506.32250	-265.01997	344.52142	1485.30552	-314.00840	356.35120	1449.33333	-30.47596	243.83181	1261.49250	13.02432	284.26805	1299.51874	80.36946	382.75791	1155.59045	108.02672	443.58197	1080.86697	98.86592	410.30522	1077.71371	130.91435	205.35582	1342.21067	-484.72533	136.19473	1139.01719	-361.58841	130.46805	1133.55348	-443.78510	154.58474	1063.28329	-464.09515	172.65171	884.58479	-450.19526	133.83857	885.52080	-448.66340	245.01196	965.25472	-49.56159	239.58911	962.11287	-256.42413	265.48432	1000.28850	-63.51826	258.89329	992.61682	-229.21281	
41	0.40000000	212.60910	540.82898	-46.47126	237.43721	444.33935	-66.35131	143.98555	119.82892	-129.20919	62.32519	76.26821	-176.83802	259.67078	45.95573	-92.51800	316.92147	73.93392	-159.16773	449.09833	581.41877	-360.00274	455.96546	492.62047	-384.56389	430.15230	160.43180	-333.35264	360.51251	102.48598	-272.62523	542.01653	84.19887	-380.33323	606.50995	114.84429	-325.01486	210.81802	335.55170	-54.72201	175.12304	462.74599	-27.25021	131.74923	355.04795	-32.15985	366.89350	494.85903	-368.93255	378.40024	373.39646	-364.59700	318.14079	857.43144	-0.18925	311.77337	747.53154	-14.60321	251.64453	724.57838	8.21407	204.62197	858.60878	17.44681	200.80506	746.13074	-4.66017	401.63828	884.43184	-344.19647	471.01355	761.69920	-340.40038	310.52097	830.08431	-375.05104	375.36422	709.51593	-374.53007	327.70885	1085.71832	-33.01441	147.36832	1085.51598	-103.04156	331.27942	1073.94188	-284.44477	143.55169	1079.74233	-213.71431	268.38708	1604.72390	-307.08333	365.18130	1583.03280	-141.43625	267.65586	1473.79869	-448.54866	372.05486	1503.00958	-268.52867	357.30342	1481.40435	-317.14239	371.26664	1449.42544	-33.11321	258.68842	1262.44151	14.35204	299.94561	1301.68239	80.74366	400.56235	1159.21345	107.98133	462.46878	1085.49457	98.36700	429.50885	1081.89415	130.82830	215.77708	1336.87454	-485.06053	144.12802	1136.88014	-358.73629	137.50309	1130.47968	-440.71236	158.85187	1059.32612	-460.28400	169.41092	880.30790	-443.93512	131.10933	883.45846	-442.93895	256.42663	964.08926	-48.56945	252.27449	960.30066	-255.45322	276.89464	999.40120	-62.17389	271.17629	990.74898	-227.99239	
